# xmcd
#
# Track frame offsets: 
#        150
#        10540
#        25569
#        34716
#        44314
#        56105
#        67109
#        76973
#        93634
#        106323
#        124190
#        135797
#        147996
#        156404
#        168816
#        180368
#        194123
#        205005
#        221142
#
# Disc length: 3144 seconds
#
# Revision: 0
# Processed by: cddbd v1.5.2PL0 Copyright (c) Steve Scherf et al.
# Submitted via: ExactAudioCopy v1.0b1
#
DISCID=040c4613
DTITLE=Clémentine - ボンシャンテ
DYEAR=2013
DGENRE=Bossa Nova
TTITLE0=アイ・アイ
TTITLE1=七つの子
TTITLE2=クラリネットをこわしちゃった
TTITLE3=故郷(ふるさと)
TTITLE4=アルプス一万尺
TTITLE5=春の小川
TTITLE6=おぼろ月夜
TTITLE7=グリーンスリーブス
TTITLE8=ドレミの歌
TTITLE9=浜辺の歌
TTITLE10=おお牧場はみどり
TTITLE11=雪
TTITLE12=大きな栗の木の下で
TTITLE13=仰げば尊し
TTITLE14=夢路より
TTITLE15=ちいさい秋みつけた
TTITLE16=キラキラ星
TTITLE17=海
TTITLE18=蛍の光
EXTD=
EXTT0=
EXTT1=
EXTT2=
EXTT3=
EXTT4=
EXTT5=
EXTT6=
EXTT7=
EXTT8=
EXTT9=
EXTT10=
EXTT11=
EXTT12=
EXTT13=
EXTT14=
EXTT15=
EXTT16=
EXTT17=
EXTT18=
PLAYORDER=
